<svg width="396" height="395" viewBox="0 0 396 395" fill="none" xmlns="http://www.w3.org/2000/svg">
<path d="M392.222 165.353C398.056 200.074 394.783 233.887 382.404 266.792C370.166 299.499 350.463 327.103 323.296 349.606C296.27 371.91 265.341 385.989 230.509 391.841C195.846 397.666 162.014 394.468 129.013 382.25C95.9844 369.862 68.2575 350.226 45.8327 323.343C23.5486 296.262 9.47533 265.277 3.61296 230.387C-2.22094 195.666 0.967094 161.867 13.1771 128.99C25.5561 96.0855 45.2587 68.4808 72.2847 46.1763C99.4513 23.674 130.451 9.49655 165.283 3.64394C200.115 -2.20868 233.961 1.07326 266.821 13.4897C299.822 25.7084 327.464 45.3581 349.748 72.4388C372.202 99.4911 386.359 130.462 392.222 165.353ZM352.233 172.594C345.005 129.574 323.823 95.6033 288.688 70.6818C253.694 45.5625 214.976 36.5684 172.535 43.6995C129.755 50.8875 95.7508 72.0135 70.521 107.078C45.4602 142.113 36.4871 180.803 43.6016 223.145C48.2119 250.583 59.2583 274.937 76.7411 296.207C94.393 317.448 116.377 332.911 142.693 342.596C169.008 352.28 195.947 354.807 223.508 350.176C250.901 345.574 275.464 334.48 297.198 316.896C318.903 299.143 334.641 277.429 344.41 251.755C354.15 225.911 356.758 199.524 352.233 172.594ZM99.6937 105.311L193.792 89.5001C213.575 86.176 228.487 85.9345 238.526 88.7756C248.566 91.6166 257.173 97.3107 264.347 105.858C271.689 114.377 276.485 125.326 278.733 138.707C280.64 150.054 280.429 159.668 278.102 167.548C275.916 175.229 270.587 183.352 262.115 191.916C270.633 195.012 276.799 199.114 280.613 204.22C284.398 209.157 287.796 218.513 290.805 232.288C296.429 258.511 300.117 273.739 301.872 277.972C303.767 282.007 307.493 285.561 313.052 288.632L259.789 297.582C256.454 292.221 254.121 287.649 252.79 283.868C251.459 280.086 249.912 273.467 248.15 264.01C244.483 245.295 241.52 233.864 239.258 229.716C236.996 225.568 233.736 222.72 229.477 221.172C225.387 219.595 217.593 219.772 206.095 221.704L168.303 228.054L182.177 310.622L135.508 318.464L99.6937 105.311ZM153.235 138.372L161.73 188.929L200.789 182.367C215.838 179.838 225.473 176.129 229.693 171.241C233.914 166.352 235.27 159.419 233.762 150.442C232.254 141.466 228.735 135.526 223.205 132.624C217.816 129.524 207.597 129.238 192.548 131.767L153.235 138.372Z" fill="#23A4B8" fill-opacity="0.3"/>
</svg>
