<svg width="210" height="73" viewBox="0 0 210 73" fill="none" xmlns="http://www.w3.org/2000/svg">
<path d="M42.6672 19.1262C47.919 19.1262 52.1765 14.8447 52.1765 9.5631C52.1765 4.28154 47.919 0 42.6672 0C37.4154 0 33.158 4.28154 33.158 9.5631C33.158 14.8447 37.4154 19.1262 42.6672 19.1262Z" fill="#FFDE00"/>
<path d="M143.385 56.4773C148.637 56.4773 152.895 52.1957 152.895 46.9142C152.895 41.6326 148.637 37.3511 143.385 37.3511C138.134 37.3511 133.876 41.6326 133.876 46.9142C133.876 52.1957 138.134 56.4773 143.385 56.4773Z" fill="#FFDE00"/>
<path d="M0 51.821V25.535C0 23.7826 1.44381 22.3306 3.23613 22.3306C4.97866 22.3306 6.42249 23.7826 6.42249 25.535V51.821C6.42249 53.6234 4.97866 55.0754 3.23613 55.0754C1.44381 55.0754 0 53.6234 0 51.821Z" fill="white"/>
<path d="M39.68 25.485V9.26274C39.68 7.51034 41.1238 6.05835 42.8663 6.05835C44.6586 6.05835 46.1024 7.51034 46.1024 9.26274V38.4527V38.5028C46.1024 47.5152 38.7838 54.8752 29.8222 54.8752C20.8108 54.8752 13.542 47.5152 13.542 38.5028C13.542 29.4404 20.8108 22.1304 29.8222 22.1304C33.5562 22.1304 36.9915 23.3821 39.68 25.485ZM39.68 38.5028V38.4527C39.68 33.0453 35.249 28.5892 29.8222 28.5892C24.3955 28.5892 19.9644 33.0453 19.9644 38.5028C19.9644 43.9102 24.3457 48.4164 29.8222 48.4164C35.2988 48.4164 39.68 43.9603 39.68 38.5028Z" fill="white"/>
<path d="M85.8322 38.653C85.8322 40.4054 84.3884 41.8573 82.5961 41.8573H60.2419C61.5861 45.7627 65.2206 48.5665 69.552 48.5665C71.0456 48.5665 73.6843 48.4163 76.8208 46.4136C78.3144 45.4122 80.3059 46.3635 81.1025 47.9156C81.8991 49.5679 81.0527 51.2202 79.5591 52.2215C75.2774 55.0755 71.9915 55.0254 69.6018 55.0254C60.5904 55.0254 53.3215 47.6653 53.3215 38.653C53.3215 29.5905 60.5904 22.2805 69.6018 22.2805C77.3685 22.2805 85.8322 28.0384 85.8322 38.653ZM60.1921 35.3985H78.9119C77.5676 30.8423 73.3855 28.7394 69.5022 28.7394C65.2205 28.7394 61.5861 31.5432 60.1921 35.3985Z" fill="white"/>
<path d="M125.313 38.9032V51.6707C125.313 53.5733 123.969 54.9252 122.077 54.9252C120.782 54.9252 118.99 53.5733 118.99 51.6707C116.202 54.024 113.115 54.9252 109.381 54.9252C100.221 54.9252 93.0015 48.0658 93.0015 38.9032C93.0015 29.6906 100.27 22.4307 109.381 22.4307C118.492 22.4307 125.313 29.6906 125.313 38.9032ZM118.94 38.9032C118.94 33.4458 114.808 28.7894 109.331 28.7894C103.905 28.7894 99.2746 33.3957 99.2746 38.9032C99.2746 44.3607 103.855 48.5665 109.331 48.5665C114.808 48.5665 118.94 44.3607 118.94 38.9032Z" fill="white"/>
<path d="M176.693 25.4849C176.693 27.2874 175.249 28.7394 173.457 28.7394H167.731V51.7709C167.731 53.5734 166.287 55.0254 164.495 55.0254C162.752 55.0254 161.309 53.5734 161.309 51.7709V28.7394H157.724C155.981 28.7394 154.538 27.2874 154.538 25.4849C154.538 23.7325 155.981 22.2805 157.724 22.2805H161.309C161.259 17.6742 162.952 13.4184 166.038 10.264C167.781 8.51164 169.822 7.20986 172.112 6.40876C173.755 5.75787 175.597 6.6591 176.195 8.36143C176.792 10.0137 175.946 11.8662 174.253 12.4671C172.909 12.9177 171.664 13.7188 170.569 14.8203C168.627 16.773 167.731 19.3265 167.731 22.2304H173.457C175.249 22.2805 176.693 23.7325 176.693 25.4849Z" fill="white"/>
<path d="M196.558 64.8387C200.441 64.8387 203.578 61.7345 203.578 57.8792V53.1728C201.636 54.3243 199.346 54.9752 196.906 54.9752C189.787 54.9752 183.962 49.1673 183.862 42.0075C183.862 41.9574 183.862 41.9574 183.862 41.9574V25.7352C183.862 23.9828 185.306 22.5308 187.048 22.5308C188.791 22.5308 190.235 23.9828 190.235 25.7352V41.9073C190.235 45.6124 193.272 48.6165 196.906 48.6165C200.59 48.6165 203.578 45.6124 203.578 41.9073V25.7352C203.578 23.9828 205.021 22.5308 206.764 22.5308C208.556 22.5308 210 23.9828 210 25.7352V57.8792C210 65.2393 203.976 71.2976 196.607 71.2976H196.508C192.824 71.2976 192.326 65.1892 196.558 64.8387Z" fill="white"/>
<path d="M95.6401 67.1418C96.6856 67.1418 97.4822 67.9429 97.4822 69.1446C97.4822 70.3462 96.6856 71.1974 95.6401 71.1974C94.9431 71.1974 94.4452 70.7969 94.1963 70.3963V72.9999H93.5491V67.1919H94.1963V67.8929C94.3954 67.4923 94.8933 67.1418 95.6401 67.1418ZM95.4907 67.6926C94.7937 67.6926 94.1465 68.2434 94.1465 69.1446C94.1465 70.0458 94.7439 70.5966 95.4907 70.5966C96.1877 70.5966 96.835 70.0458 96.835 69.1446C96.7852 68.2434 96.1877 67.6926 95.4907 67.6926Z" fill="white"/>
<path d="M99.374 71.1473H98.7268V67.1919H99.374V67.8428C99.5732 67.3922 100.021 67.1418 100.619 67.1418V67.7927H100.469C99.8719 67.7927 99.374 68.0932 99.374 68.9944V71.1473Z" fill="white"/>
<path d="M103.506 71.1974C102.411 71.1974 101.565 70.3963 101.565 69.1446C101.565 67.8929 102.411 67.1418 103.556 67.1418C104.651 67.1418 105.548 67.9429 105.548 69.1446C105.498 70.3963 104.651 71.1974 103.506 71.1974ZM103.506 70.5966C104.203 70.5966 104.851 70.146 104.851 69.1446C104.851 68.1432 104.203 67.6926 103.556 67.6926C102.859 67.6926 102.262 68.1432 102.262 69.1446C102.262 70.146 102.859 70.5966 103.506 70.5966Z" fill="white"/>
<path d="M108.883 67.1418C109.929 67.1418 110.725 67.9429 110.725 69.1446C110.725 70.3462 109.929 71.1974 108.883 71.1974C108.186 71.1974 107.688 70.7969 107.439 70.3963V72.9999H106.792V67.1919H107.439V67.8929C107.688 67.4923 108.186 67.1418 108.883 67.1418ZM108.784 67.6926C108.087 67.6926 107.439 68.2434 107.439 69.1446C107.439 70.0458 108.037 70.5966 108.784 70.5966C109.481 70.5966 110.128 70.0458 110.128 69.1446C110.078 68.2434 109.481 67.6926 108.784 67.6926Z" fill="white"/>
<path d="M112.667 71.1473H112.02V67.1919H112.667V67.8428C112.866 67.3922 113.314 67.1418 113.912 67.1418V67.7927H113.763C113.165 67.7927 112.667 68.0932 112.667 68.9944V71.1473Z" fill="white"/>
<path d="M115.007 66.1406C115.007 65.8902 115.206 65.6899 115.455 65.6899C115.704 65.6899 115.903 65.8902 115.903 66.1406C115.903 66.3909 115.704 66.5912 115.455 66.5912C115.156 66.5912 115.007 66.3909 115.007 66.1406ZM115.107 67.192H115.754V71.0973H115.107V67.192Z" fill="white"/>
<path d="M118.94 71.1974C117.845 71.1974 116.999 70.3963 116.999 69.1446C116.999 67.8929 117.795 67.1418 118.94 67.1418C120.085 67.1418 120.832 67.9429 120.832 68.9944C120.832 69.1446 120.832 69.2447 120.832 69.3949H117.745C117.795 70.196 118.343 70.6466 118.99 70.6466C119.587 70.6466 119.936 70.3462 120.085 69.9457H120.782C120.533 70.6466 119.936 71.1974 118.94 71.1974ZM117.696 68.8942H120.135C120.135 68.1432 119.587 67.6926 118.89 67.6926C118.293 67.6926 117.745 68.0931 117.696 68.8942Z" fill="white"/>
<path d="M123.72 67.1419C124.317 67.1419 124.915 67.4423 125.164 67.8929V65.8401H125.811V71.1474H125.164V70.3963C124.915 70.847 124.417 71.1974 123.72 71.1974C122.674 71.1974 121.878 70.3963 121.878 69.1446C121.878 67.943 122.674 67.1419 123.72 67.1419ZM123.819 67.6926C123.122 67.6926 122.525 68.1933 122.525 69.1446C122.525 70.0459 123.122 70.5966 123.819 70.5966C124.516 70.5966 125.164 70.0459 125.164 69.1446C125.164 68.2434 124.516 67.6926 123.819 67.6926Z" fill="white"/>
<path d="M128.947 67.1418C129.694 67.1418 130.192 67.4923 130.391 67.9429V67.1919H131.038V71.0973H130.391V70.3462C130.142 70.7468 129.644 71.1473 128.947 71.1473C127.902 71.1473 127.105 70.3462 127.105 69.0945C127.105 67.9429 127.902 67.1418 128.947 67.1418ZM129.047 67.6926C128.35 67.6926 127.752 68.1933 127.752 69.1446C127.752 70.0458 128.35 70.5966 129.047 70.5966C129.744 70.5966 130.391 70.0458 130.391 69.1446C130.391 68.2434 129.744 67.6926 129.047 67.6926Z" fill="white"/>
<path d="M134.175 67.1419C134.772 67.1419 135.37 67.4423 135.619 67.8929V65.8401H136.266V71.1474H135.619V70.3963C135.37 70.847 134.872 71.1974 134.175 71.1974C133.129 71.1974 132.333 70.3963 132.333 69.1446C132.333 67.943 133.129 67.1419 134.175 67.1419ZM134.274 67.6926C133.577 67.6926 132.98 68.1933 132.98 69.1446C132.98 70.0459 133.577 70.5966 134.274 70.5966C134.971 70.5966 135.619 70.0459 135.619 69.1446C135.619 68.2434 134.971 67.6926 134.274 67.6926Z" fill="white"/>
<path d="M139.452 71.1974C138.357 71.1974 137.511 70.3963 137.511 69.1446C137.511 67.8929 138.307 67.1418 139.452 67.1418C140.598 67.1418 141.344 67.9429 141.344 68.9944C141.344 69.1446 141.344 69.2447 141.344 69.3949H138.258C138.307 70.196 138.855 70.6466 139.502 70.6466C140.1 70.6466 140.448 70.3462 140.598 69.9457H141.295C141.046 70.6466 140.448 71.1974 139.452 71.1974ZM138.208 68.8942H140.647C140.647 68.1432 140.1 67.6926 139.403 67.6926C138.805 67.6926 138.258 68.0931 138.208 68.8942Z" fill="white"/>
<path d="M144.829 66.1406C144.829 65.8902 145.029 65.6899 145.277 65.6899C145.526 65.6899 145.725 65.8902 145.725 66.1406C145.725 66.3909 145.526 66.5912 145.277 66.5912C145.029 66.5912 144.829 66.3909 144.829 66.1406ZM144.929 67.192H145.576V71.0973H144.929V67.192Z" fill="white"/>
<path d="M149.957 68.8943C149.957 68.0932 149.509 67.6926 148.862 67.6926C148.215 67.6926 147.767 68.0932 147.767 68.9443V71.0973H147.119V67.1919H147.767V67.7427C148.016 67.3421 148.513 67.0918 149.011 67.0918C149.907 67.0918 150.604 67.6426 150.604 68.7941V71.0973H149.957V68.8943Z" fill="white"/>
<path d="M152.198 67.7428H151.7V67.192H152.198V66.1907H152.845V67.192H153.841V67.7428H152.845V70.046C152.845 70.4465 152.994 70.5466 153.392 70.5466H153.89V71.0974H153.293C152.596 71.0974 152.198 70.797 152.198 70.046V67.7428Z" fill="white"/>
<path d="M156.778 71.1974C155.683 71.1974 154.836 70.3963 154.836 69.1446C154.836 67.8929 155.633 67.1418 156.778 67.1418C157.923 67.1418 158.67 67.9429 158.67 68.9944C158.67 69.1446 158.67 69.2447 158.67 69.3949H155.583C155.633 70.196 156.181 70.6466 156.828 70.6466C157.425 70.6466 157.774 70.3462 157.923 69.9457H158.62C158.371 70.6466 157.724 71.1974 156.778 71.1974ZM155.533 68.8942H157.973C157.973 68.1432 157.425 67.6926 156.728 67.6926C156.131 67.6926 155.583 68.0931 155.533 68.8942Z" fill="white"/>
<path d="M159.915 65.8401H160.562V71.1474H159.915V65.8401Z" fill="white"/>
<path d="M163.748 71.1974C162.653 71.1974 161.806 70.3963 161.806 69.1446C161.806 67.8929 162.603 67.1418 163.748 67.1418C164.893 67.1418 165.64 67.9429 165.64 68.9944C165.64 69.1446 165.64 69.2447 165.64 69.3949H162.553C162.603 70.196 163.151 70.6466 163.798 70.6466C164.395 70.6466 164.744 70.3462 164.893 69.9457H165.59C165.341 70.6466 164.744 71.1974 163.748 71.1974ZM162.503 68.8942H164.943C164.943 68.1432 164.395 67.6926 163.698 67.6926C163.101 67.6926 162.603 68.0931 162.503 68.8942Z" fill="white"/>
<path d="M168.577 67.1418C169.523 67.1418 170.171 67.6425 170.37 68.4436H169.673C169.523 67.993 169.125 67.6926 168.577 67.6926C167.88 67.6926 167.333 68.1933 167.333 69.1446C167.333 70.0959 167.88 70.6466 168.577 70.6466C169.175 70.6466 169.523 70.3462 169.673 69.8956H170.37C170.171 70.6967 169.523 71.1974 168.577 71.1974C167.482 71.1974 166.686 70.3963 166.686 69.1446C166.686 67.9429 167.482 67.1418 168.577 67.1418Z" fill="white"/>
<path d="M171.814 67.7428H171.316V67.192H171.814V66.1907H172.461V67.192H173.457V67.7428H172.461V70.046C172.461 70.4465 172.61 70.5466 173.008 70.5466H173.506V71.0974H172.909C172.212 71.0974 171.814 70.797 171.814 70.046V67.7428Z" fill="white"/>
<path d="M178.137 71.1473H177.489V70.5465C177.24 70.947 176.743 71.1974 176.245 71.1974C175.349 71.1974 174.652 70.6466 174.652 69.4951V67.1919H175.299V69.3949C175.299 70.196 175.747 70.5966 176.394 70.5966C177.041 70.5966 177.489 70.196 177.489 69.3448V67.1919H178.137V71.1473Z" fill="white"/>
<path d="M181.223 67.1418C181.97 67.1418 182.468 67.4923 182.667 67.9429V67.1919H183.314V71.0973H182.667V70.3462C182.418 70.7468 181.92 71.1473 181.223 71.1473C180.178 71.1473 179.381 70.3462 179.381 69.0945C179.381 67.9429 180.178 67.1418 181.223 67.1418ZM181.373 67.6926C180.676 67.6926 180.078 68.1933 180.078 69.1446C180.078 70.0458 180.676 70.5966 181.373 70.5966C182.07 70.5966 182.717 70.0458 182.717 69.1446C182.667 68.2434 182.07 67.6926 181.373 67.6926Z" fill="white"/>
<path d="M184.858 65.8401H185.505V71.1474H184.858V65.8401Z" fill="white"/>
</svg>
