<svg width="378" height="534" viewBox="0 0 378 534" fill="none" xmlns="http://www.w3.org/2000/svg">
<path d="M284.961 186.077C336.345 186.077 378 144.422 378 93.0386C378 41.6548 336.345 0 284.961 0C233.578 0 191.923 41.6548 191.923 93.0386C191.923 144.422 233.578 186.077 284.961 186.077Z" fill="#FFDE00"/>
<path d="M255.734 247.938V90.1128C255.734 73.0638 269.861 58.9375 286.91 58.9375C304.446 58.9375 318.572 73.0638 318.572 90.1128V374.1V374.587C318.572 462.267 246.966 533.873 159.286 533.873C71.1186 533.873 0 462.267 0 374.587C0 286.419 71.1186 215.301 159.286 215.301C195.82 215.301 229.43 227.479 255.734 247.938ZM255.734 374.587V374.1C255.734 321.492 212.381 278.138 159.286 278.138C106.191 278.138 62.8374 321.492 62.8374 374.587C62.8374 427.195 105.704 471.035 159.286 471.035C212.869 471.035 255.734 427.682 255.734 374.587Z" fill="white"/>
</svg>
