<svg width="191" height="64" viewBox="0 0 191 64" fill="none" xmlns="http://www.w3.org/2000/svg">
<g id="Logo">
<path id="Vector" d="M38.7301 17.1685C43.4918 17.1685 47.3518 13.3252 47.3518 8.58426C47.3518 3.8433 43.4918 0 38.7301 0C33.9685 0 30.1084 3.8433 30.1084 8.58426C30.1084 13.3252 33.9685 17.1685 38.7301 17.1685Z" fill="#FFDE00"/>
<path id="Vector_2" d="M130.048 50.6966C134.81 50.6966 138.67 46.8533 138.67 42.1123C138.67 37.3714 134.81 33.5281 130.048 33.5281C125.286 33.5281 121.426 37.3714 121.426 42.1123C121.426 46.8533 125.286 50.6966 130.048 50.6966Z" fill="#FFDE00"/>
<path id="Vector_3" d="M0 46.5168V22.9213C0 21.3483 1.30906 20.0449 2.93409 20.0449C4.51399 20.0449 5.82304 21.3483 5.82304 22.9213V46.5168C5.82304 48.1348 4.51399 49.4382 2.93409 49.4382C1.30906 49.4382 0 48.1348 0 46.5168Z" fill="white"/>
<path id="Vector_4" d="M36.0217 22.8764V8.31464C36.0217 6.74161 37.3307 5.43823 38.9106 5.43823C40.5357 5.43823 41.8447 6.74161 41.8447 8.31464V34.5169V34.5618C41.8447 42.6517 35.2092 49.2585 27.084 49.2585C18.9137 49.2585 12.3232 42.6517 12.3232 34.5618C12.3232 26.427 18.9137 19.8652 27.084 19.8652C30.4243 19.8652 33.539 20.9888 36.0217 22.8764ZM36.0217 34.5618V34.5169C36.0217 29.663 32.0042 25.6629 27.084 25.6629C22.1637 25.6629 18.1463 29.663 18.1463 34.5618C18.1463 39.4158 22.1186 43.4607 27.084 43.4607C32.0042 43.4607 36.0217 39.4607 36.0217 34.5618Z" fill="white"/>
<path id="Vector_5" d="M77.8211 34.6966C77.8211 36.2697 76.512 37.573 74.887 37.573H54.6192C55.8379 41.0787 59.1332 43.5955 63.0603 43.5955C64.4145 43.5955 66.8069 43.4607 69.6507 41.6629C71.0049 40.764 72.8105 41.618 73.5328 43.0112C74.255 44.4944 73.4876 45.9775 72.1334 46.8764C68.2514 49.4382 65.2722 49.3933 63.1055 49.3933C54.9351 49.3933 48.3447 42.7865 48.3447 34.6966C48.3447 26.5618 54.9351 20 63.1055 20C70.1924 20 77.8211 25.1685 77.8211 34.6966ZM54.6192 31.7753H71.5918C70.373 27.6854 66.5812 25.7978 63.0603 25.7978C59.1332 25.7978 55.8379 28.3146 54.6192 31.7753Z" fill="white"/>
<path id="Vector_6" d="M113.617 34.9213V46.382C113.617 48.0898 112.398 49.3033 110.683 49.3033C109.509 49.3033 107.884 48.0898 107.884 46.382C105.356 48.4943 102.558 49.3033 99.1723 49.3033C90.8666 49.3033 84.3213 43.146 84.3213 34.9213C84.3213 26.6516 90.9117 20.1348 99.1723 20.1348C107.478 20.1348 113.617 26.6516 113.617 34.9213ZM107.884 34.9213C107.884 30.0224 104.138 25.8426 99.1723 25.8426C94.2521 25.8426 90.0541 29.9775 90.0541 34.9213C90.0541 39.8202 94.2069 43.5954 99.1723 43.5954C104.138 43.5954 107.884 39.8202 107.884 34.9213Z" fill="white"/>
<path id="Vector_7" d="M160.201 22.8764C160.201 24.4943 158.892 25.7977 157.267 25.7977H152.076V46.4719C152.076 48.0898 150.767 49.3932 149.142 49.3932C147.562 49.3932 146.253 48.0898 146.253 46.4719V25.7977H143.048C141.468 25.7977 140.159 24.4943 140.159 22.8764C140.159 21.3033 141.468 19.9999 143.048 19.9999H146.298C146.253 15.8651 147.788 12.0449 150.586 9.21343C152.166 7.6404 154.017 6.47186 156.094 5.75276C157.583 5.16849 159.253 5.97748 159.795 7.50557C160.337 8.98871 159.569 10.6516 158.035 11.191C156.816 11.5955 155.687 12.3146 154.694 13.3033C152.934 15.0561 152.121 17.3483 152.121 19.955H157.312C158.937 20 160.201 21.3033 160.201 22.8764Z" fill="white"/>
<path id="Vector_8" d="M178.212 58.2021C181.733 58.2021 184.577 55.4156 184.577 51.9549V47.7302C182.817 48.7639 180.74 49.3482 178.528 49.3482C172.073 49.3482 166.792 44.1347 166.702 37.7078C166.702 37.6628 166.702 37.6628 166.702 37.6628V23.101C166.702 21.528 168.011 20.2246 169.591 20.2246C171.171 20.2246 172.48 21.528 172.48 23.101V37.6179C172.48 40.9437 175.233 43.6403 178.528 43.6403C181.869 43.6403 184.577 40.9437 184.577 37.6179V23.101C184.577 21.528 185.886 20.2246 187.466 20.2246C189.091 20.2246 190.4 21.528 190.4 23.101V51.9549C190.4 58.5617 184.938 63.9999 178.257 63.9999H178.167C174.827 63.9999 174.375 58.5167 178.212 58.2021Z" fill="white"/>
</g>
</svg>
