<svg width="699" height="1081" viewBox="0 0 699 1081" fill="none" xmlns="http://www.w3.org/2000/svg">
<mask id="mask0_73_71" style="mask-type:alpha" maskUnits="userSpaceOnUse" x="-1" y="0" width="700" height="1081">
<rect x="-1" width="700" height="1081" fill="#D9D9D9"/>
</mask>
<g mask="url(#mask0_73_71)">
<path d="M686.785 453.901C702.391 546.781 693.637 637.232 660.522 725.254C627.784 812.747 575.079 886.591 502.407 946.785C430.111 1006.45 347.375 1044.11 254.197 1059.77C161.471 1075.35 70.9698 1066.79 -17.308 1034.11C-105.662 1000.97 -179.832 948.445 -239.819 876.532C-299.43 804.09 -337.077 721.203 -352.759 627.87C-368.365 534.99 -359.837 444.577 -327.175 356.631C-294.06 268.609 -241.355 194.765 -169.059 135.1C-96.3877 74.9051 -13.4629 36.9799 79.7149 21.3239C172.893 5.66792 263.432 14.4472 351.334 47.6618C439.612 80.3473 513.556 132.911 573.167 205.353C633.23 277.719 671.103 360.568 686.785 453.901ZM579.814 473.273C560.477 358.192 503.816 267.319 409.829 200.653C316.218 133.458 212.646 109.398 99.1138 128.474C-15.323 147.702 -106.287 204.215 -173.778 298.013C-240.816 391.735 -264.819 495.23 -245.788 608.498C-233.455 681.896 -203.905 747.044 -157.138 803.941C-109.919 860.762 -51.1113 902.126 19.2843 928.033C89.6798 953.94 161.742 960.699 235.47 948.312C308.745 936 374.453 906.325 432.592 859.287C490.655 811.796 532.753 753.71 558.885 685.03C584.942 615.897 591.918 545.311 579.814 473.273ZM-95.7391 293.286L155.977 250.992C208.898 242.1 248.787 241.454 275.644 249.054C302.501 256.654 325.524 271.886 344.714 294.75C364.356 317.538 377.184 346.829 383.198 382.622C388.298 412.978 387.736 438.695 381.51 459.773C375.661 480.322 361.406 502.05 338.745 524.958C361.531 533.242 378.025 544.214 388.227 557.873C398.352 571.08 407.441 596.107 415.492 632.955C430.534 703.102 440.402 743.838 445.095 755.162C450.164 765.957 460.133 775.462 475.001 783.679L332.521 807.619C323.6 793.279 317.36 781.05 313.799 770.933C310.239 760.817 306.101 743.11 301.386 717.814C291.579 667.751 283.65 637.171 277.6 626.076C271.55 614.98 262.829 607.361 251.435 603.219C240.495 599.001 219.646 599.476 188.888 604.644L87.7946 621.63L124.906 842.503L0.0660891 863.479L-95.7391 293.286ZM47.4856 381.728L70.2093 516.97L174.695 499.414C214.952 492.65 240.725 482.729 252.015 469.651C263.305 456.574 266.933 438.028 262.898 414.015C258.864 390.003 249.45 374.114 234.658 366.351C220.242 358.058 192.906 357.294 152.65 364.058L47.4856 381.728Z" fill="#23A4B8" fill-opacity="0.3"/>
</g>
</svg>
